<svg xmlns="http://www.w3.org/2000/svg" viewBox="0 0 800 1000" width="800" height="1000">
<title>Art Deco Glass Flower</title>
<defs>
  <radialGradient id="bg" cx="50%" cy="40%" r="75%">
    <stop offset="0" stop-color="#2a1340"/><stop offset=".55" stop-color="#150a22"/><stop offset="1" stop-color="#07040c"/>
  </radialGradient>
  <linearGradient id="gold" x1="0" y1="0" x2="1" y2="1">
    <stop offset="0" stop-color="#fff1c1"/><stop offset=".35" stop-color="#d9a640"/>
    <stop offset=".6" stop-color="#8a5a12"/><stop offset=".85" stop-color="#f2cf6e"/><stop offset="1" stop-color="#a8761f"/>
  </linearGradient>
  <linearGradient id="goldV" x1="0" y1="0" x2="0" y2="1">
    <stop offset="0" stop-color="#ffe9a8"/><stop offset=".5" stop-color="#b98327"/><stop offset="1" stop-color="#f0c766"/>
  </linearGradient>
  <linearGradient id="vLight1" x1="0" y1="1" x2="0" y2="0">
    <stop offset="0" stop-color="#5b1f8f" stop-opacity=".95"/><stop offset=".6" stop-color="#b57cf0" stop-opacity=".75"/><stop offset="1" stop-color="#ead7ff" stop-opacity=".85"/>
  </linearGradient>
  <linearGradient id="vDark1" x1="0" y1="1" x2="0" y2="0">
    <stop offset="0" stop-color="#2a0a4a" stop-opacity=".95"/><stop offset=".6" stop-color="#6a2fb0" stop-opacity=".8"/><stop offset="1" stop-color="#a874e6" stop-opacity=".8"/>
  </linearGradient>
  <linearGradient id="vLight2" x1="0" y1="1" x2="0" y2="0">
    <stop offset="0" stop-color="#7a1fa8" stop-opacity=".95"/><stop offset=".6" stop-color="#d48cf5" stop-opacity=".8"/><stop offset="1" stop-color="#fbe4ff" stop-opacity=".9"/>
  </linearGradient>
  <linearGradient id="vDark2" x1="0" y1="1" x2="0" y2="0">
    <stop offset="0" stop-color="#3b0858" stop-opacity=".95"/><stop offset=".6" stop-color="#8f36c2" stop-opacity=".85"/><stop offset="1" stop-color="#c47ae8" stop-opacity=".85"/>
  </linearGradient>
  <linearGradient id="vLight3" x1="0" y1="1" x2="0" y2="0">
    <stop offset="0" stop-color="#9d2fc9"/><stop offset="1" stop-color="#ffe8ff"/>
  </linearGradient>
  <linearGradient id="vDark3" x1="0" y1="1" x2="0" y2="0">
    <stop offset="0" stop-color="#4c0f70"/><stop offset="1" stop-color="#c26be6"/>
  </linearGradient>
  <linearGradient id="bevel" x1="0" y1="1" x2="0" y2="0">
    <stop offset="0" stop-color="#fff" stop-opacity="0"/><stop offset=".7" stop-color="#fff" stop-opacity=".08"/><stop offset="1" stop-color="#fff" stop-opacity=".22"/>
  </linearGradient>
  <linearGradient id="leafL" x1="0" y1="0" x2="1" y2="1">
    <stop offset="0" stop-color="#c9a6f2" stop-opacity=".85"/><stop offset="1" stop-color="#4a2380" stop-opacity=".9"/>
  </linearGradient>
  <linearGradient id="leafD" x1="0" y1="0" x2="1" y2="1">
    <stop offset="0" stop-color="#6d43a8" stop-opacity=".9"/><stop offset="1" stop-color="#1e0b3a" stop-opacity=".95"/>
  </linearGradient>
  <linearGradient id="stem" x1="0" y1="0" x2="1" y2="0">
    <stop offset="0" stop-color="#3a1764"/><stop offset=".35" stop-color="#d9b8ff"/><stop offset=".5" stop-color="#8e5cc8"/><stop offset="1" stop-color="#241040"/>
  </linearGradient>
  <radialGradient id="gem" cx="40%" cy="35%" r="70%">
    <stop offset="0" stop-color="#fff"/><stop offset=".25" stop-color="#f1c9ff"/><stop offset=".6" stop-color="#a23fd6"/><stop offset="1" stop-color="#3b0a5c"/>
  </radialGradient>
  <radialGradient id="halo" cx="50%" cy="50%" r="50%">
    <stop offset="0" stop-color="#c77dff" stop-opacity=".55"/><stop offset=".5" stop-color="#7b2cbf" stop-opacity=".18"/><stop offset="1" stop-color="#7b2cbf" stop-opacity="0"/>
  </radialGradient>
  <linearGradient id="plinth" x1="0" y1="0" x2="0" y2="1">
    <stop offset="0" stop-color="#3b2157"/><stop offset="1" stop-color="#140a22"/>
  </linearGradient>
  <filter id="soft" x="-50%" y="-50%" width="200%" height="200%"><feGaussianBlur stdDeviation="2.2"/></filter>
  <filter id="glow" x="-50%" y="-50%" width="200%" height="200%">
    <feGaussianBlur stdDeviation="6" result="b"/><feMerge><feMergeNode in="b"/><feMergeNode in="SourceGraphic"/></feMerge>
  </filter>
</defs>
<rect width="800" height="1000" fill="url(#bg)"/>
<clipPath id="inner"><rect x="40" y="40" width="720" height="920"/></clipPath>
<g clip-path="url(#inner)"><line x1="100.9" y1="376.5" x2="-118.4" y2="359.2" stroke="url(#goldV)" stroke-width="0.8" opacity="0.3"/><line x1="108.9" y1="327.4" x2="-104.6" y2="274.2" stroke="url(#goldV)" stroke-width="1.6" opacity="0.55"/><line x1="124.9" y1="280.4" x2="-76.9" y2="192.7" stroke="url(#goldV)" stroke-width="0.8" opacity="0.3"/><line x1="148.4" y1="236.6" x2="-36.1" y2="116.8" stroke="url(#goldV)" stroke-width="1.6" opacity="0.55"/><line x1="178.8" y1="197.3" x2="16.6" y2="48.7" stroke="url(#goldV)" stroke-width="0.8" opacity="0.3"/><line x1="215.3" y1="163.6" x2="79.9" y2="-9.8" stroke="url(#goldV)" stroke-width="1.6" opacity="0.55"/><line x1="256.9" y1="136.4" x2="151.9" y2="-57.0" stroke="url(#goldV)" stroke-width="0.8" opacity="0.3"/><line x1="302.3" y1="116.3" x2="230.7" y2="-91.7" stroke="url(#goldV)" stroke-width="1.6" opacity="0.55"/><line x1="350.5" y1="104.1" x2="314.2" y2="-112.9" stroke="url(#goldV)" stroke-width="0.8" opacity="0.3"/><line x1="400.0" y1="100.0" x2="400.0" y2="-120.0" stroke="url(#goldV)" stroke-width="1.6" opacity="0.55"/><line x1="449.5" y1="104.1" x2="485.8" y2="-112.9" stroke="url(#goldV)" stroke-width="0.8" opacity="0.3"/><line x1="497.7" y1="116.3" x2="569.3" y2="-91.7" stroke="url(#goldV)" stroke-width="1.6" opacity="0.55"/><line x1="543.1" y1="136.4" x2="648.1" y2="-57.0" stroke="url(#goldV)" stroke-width="0.8" opacity="0.3"/><line x1="584.7" y1="163.6" x2="720.1" y2="-9.8" stroke="url(#goldV)" stroke-width="1.6" opacity="0.55"/><line x1="621.2" y1="197.3" x2="783.4" y2="48.7" stroke="url(#goldV)" stroke-width="0.8" opacity="0.3"/><line x1="651.6" y1="236.6" x2="836.1" y2="116.8" stroke="url(#goldV)" stroke-width="1.6" opacity="0.55"/><line x1="675.1" y1="280.4" x2="876.9" y2="192.7" stroke="url(#goldV)" stroke-width="0.8" opacity="0.3"/><line x1="691.1" y1="327.4" x2="904.6" y2="274.2" stroke="url(#goldV)" stroke-width="1.6" opacity="0.55"/><line x1="699.1" y1="376.5" x2="918.4" y2="359.2" stroke="url(#goldV)" stroke-width="0.8" opacity="0.3"/></g>
<circle cx="400" cy="400" r="250" fill="none" stroke="url(#gold)" stroke-width="1.2" opacity="0.5"/>
<circle cx="400" cy="400" r="268" fill="none" stroke="url(#gold)" stroke-width="1.2" opacity="0.3"/>
<circle cx="400" cy="400" r="290" fill="none" stroke="url(#gold)" stroke-width="1.2" opacity="0.18"/>
<circle cx="400" cy="400" r="260" fill="url(#halo)"/>
<rect x="391" y="440" width="18" height="380" fill="url(#stem)" opacity=".92"/>
<rect x="391" y="440" width="18" height="380" fill="none" stroke="url(#goldV)" stroke-width="2"/>
<line x1="391" y1="490" x2="409" y2="490" stroke="url(#gold)" stroke-width="2"/>
<line x1="391" y1="560" x2="409" y2="560" stroke="url(#gold)" stroke-width="2"/>
<line x1="391" y1="630" x2="409" y2="630" stroke="url(#gold)" stroke-width="2"/>
<line x1="391" y1="700" x2="409" y2="700" stroke="url(#gold)" stroke-width="2"/>
<line x1="391" y1="770" x2="409" y2="770" stroke="url(#gold)" stroke-width="2"/>
<path d="M391,812 L310.0,694.4 L200.0,702.0 Z" fill="url(#leafL)"/>
<path d="M391,812 L200.0,702.0 L276.0,788.0 Z" fill="url(#leafD)"/>
<path d="M391,812 L310.0,694.4 L200.0,702.0 L276.0,788.0 Z" fill="none" stroke="url(#gold)" stroke-width="2.5" stroke-linejoin="miter"/>
<line x1="391" y1="812" x2="200.0" y2="702.0" stroke="url(#gold)" stroke-width="1.4"/>
<path d="M350.0,764.0 L310.0,728.0 L300.0,740.0 Z" fill="#fff" opacity=".45" filter="url(#soft)"/>
<path d="M409,812 L490.0,694.4 L600.0,702.0 Z" fill="url(#leafL)"/>
<path d="M409,812 L600.0,702.0 L524.0,788.0 Z" fill="url(#leafD)"/>
<path d="M409,812 L490.0,694.4 L600.0,702.0 L524.0,788.0 Z" fill="none" stroke="url(#gold)" stroke-width="2.5" stroke-linejoin="miter"/>
<line x1="409" y1="812" x2="600.0" y2="702.0" stroke="url(#gold)" stroke-width="1.4"/>
<path d="M450.0,764.0 L490.0,728.0 L500.0,740.0 Z" fill="#fff" opacity=".45" filter="url(#soft)"/>
<rect x="250.0" y="820" width="300" height="22" fill="url(#plinth)" stroke="url(#gold)" stroke-width="2"/>
<rect x="220.0" y="842" width="360" height="22" fill="url(#plinth)" stroke="url(#gold)" stroke-width="2"/>
<rect x="190.0" y="864" width="420" height="24" fill="url(#plinth)" stroke="url(#gold)" stroke-width="2"/>
<rect x="150.0" y="888" width="500" height="30" fill="url(#plinth)" stroke="url(#gold)" stroke-width="2"/>
<line x1="240" y1="891" x2="240" y2="915" stroke="url(#goldV)" stroke-width="1" opacity=".55"/>
<line x1="280" y1="891" x2="280" y2="915" stroke="url(#goldV)" stroke-width="1" opacity=".55"/>
<line x1="320" y1="891" x2="320" y2="915" stroke="url(#goldV)" stroke-width="1" opacity=".55"/>
<line x1="360" y1="891" x2="360" y2="915" stroke="url(#goldV)" stroke-width="1" opacity=".55"/>
<line x1="400" y1="891" x2="400" y2="915" stroke="url(#goldV)" stroke-width="1" opacity=".55"/>
<line x1="440" y1="891" x2="440" y2="915" stroke="url(#goldV)" stroke-width="1" opacity=".55"/>
<line x1="480" y1="891" x2="480" y2="915" stroke="url(#goldV)" stroke-width="1" opacity=".55"/>
<line x1="520" y1="891" x2="520" y2="915" stroke="url(#goldV)" stroke-width="1" opacity=".55"/>
<line x1="560" y1="891" x2="560" y2="915" stroke="url(#goldV)" stroke-width="1" opacity=".55"/>
<g filter="url(#glow)">
<g transform="translate(400,400) rotate(22.5)">
<path d="M0,0 L-70.0,-105.0 L-38.5,-205.0 L0,-250.0 Z" fill="url(#vLight1)"/>
<path d="M0,0 L70.0,-105.0 L38.5,-205.0 L0,-250.0 Z" fill="url(#vDark1)"/>
<path d="M0,0 L-43.4,-81.9 L-23.9,-159.9 L0,-195.0 L23.9,-159.9 L43.4,-81.9 Z" transform="translate(0,-25.0)" fill="url(#bevel)" stroke="#f3e6ff" stroke-opacity=".35" stroke-width="1"/>
<line x1="0" y1="-30.0" x2="-24.5" y2="-131.2" stroke="#fff" stroke-opacity=".18" stroke-width="1"/>
<line x1="0" y1="-30.0" x2="-42.0" y2="-150.0" stroke="#fff" stroke-opacity=".18" stroke-width="1"/>
<path d="M-17.5,-55.0 L-43.4,-110.0 L-35.0,-125.0 Z" fill="#fff" opacity=".55" filter="url(#soft)"/>
<line x1="0" y1="0" x2="0" y2="-250.0" stroke="url(#gold)" stroke-width="1.6"/>
<path d="M0,0 L-70.0,-105.0 L-38.5,-205.0 L0,-250.0 L38.5,-205.0 L70.0,-105.0 Z" fill="none" stroke="url(#gold)" stroke-width="3" stroke-linejoin="miter"/>
</g>
<g transform="translate(400,400) rotate(67.5)">
<path d="M0,0 L-70.0,-105.0 L-38.5,-205.0 L0,-250.0 Z" fill="url(#vLight1)"/>
<path d="M0,0 L70.0,-105.0 L38.5,-205.0 L0,-250.0 Z" fill="url(#vDark1)"/>
<path d="M0,0 L-43.4,-81.9 L-23.9,-159.9 L0,-195.0 L23.9,-159.9 L43.4,-81.9 Z" transform="translate(0,-25.0)" fill="url(#bevel)" stroke="#f3e6ff" stroke-opacity=".35" stroke-width="1"/>
<line x1="0" y1="-30.0" x2="-24.5" y2="-131.2" stroke="#fff" stroke-opacity=".18" stroke-width="1"/>
<line x1="0" y1="-30.0" x2="-42.0" y2="-150.0" stroke="#fff" stroke-opacity=".18" stroke-width="1"/>
<path d="M-17.5,-55.0 L-43.4,-110.0 L-35.0,-125.0 Z" fill="#fff" opacity=".55" filter="url(#soft)"/>
<line x1="0" y1="0" x2="0" y2="-250.0" stroke="url(#gold)" stroke-width="1.6"/>
<path d="M0,0 L-70.0,-105.0 L-38.5,-205.0 L0,-250.0 L38.5,-205.0 L70.0,-105.0 Z" fill="none" stroke="url(#gold)" stroke-width="3" stroke-linejoin="miter"/>
</g>
<g transform="translate(400,400) rotate(112.5)">
<path d="M0,0 L-70.0,-105.0 L-38.5,-205.0 L0,-250.0 Z" fill="url(#vLight1)"/>
<path d="M0,0 L70.0,-105.0 L38.5,-205.0 L0,-250.0 Z" fill="url(#vDark1)"/>
<path d="M0,0 L-43.4,-81.9 L-23.9,-159.9 L0,-195.0 L23.9,-159.9 L43.4,-81.9 Z" transform="translate(0,-25.0)" fill="url(#bevel)" stroke="#f3e6ff" stroke-opacity=".35" stroke-width="1"/>
<line x1="0" y1="-30.0" x2="-24.5" y2="-131.2" stroke="#fff" stroke-opacity=".18" stroke-width="1"/>
<line x1="0" y1="-30.0" x2="-42.0" y2="-150.0" stroke="#fff" stroke-opacity=".18" stroke-width="1"/>
<path d="M-17.5,-55.0 L-43.4,-110.0 L-35.0,-125.0 Z" fill="#fff" opacity=".55" filter="url(#soft)"/>
<line x1="0" y1="0" x2="0" y2="-250.0" stroke="url(#gold)" stroke-width="1.6"/>
<path d="M0,0 L-70.0,-105.0 L-38.5,-205.0 L0,-250.0 L38.5,-205.0 L70.0,-105.0 Z" fill="none" stroke="url(#gold)" stroke-width="3" stroke-linejoin="miter"/>
</g>
<g transform="translate(400,400) rotate(157.5)">
<path d="M0,0 L-70.0,-105.0 L-38.5,-205.0 L0,-250.0 Z" fill="url(#vLight1)"/>
<path d="M0,0 L70.0,-105.0 L38.5,-205.0 L0,-250.0 Z" fill="url(#vDark1)"/>
<path d="M0,0 L-43.4,-81.9 L-23.9,-159.9 L0,-195.0 L23.9,-159.9 L43.4,-81.9 Z" transform="translate(0,-25.0)" fill="url(#bevel)" stroke="#f3e6ff" stroke-opacity=".35" stroke-width="1"/>
<line x1="0" y1="-30.0" x2="-24.5" y2="-131.2" stroke="#fff" stroke-opacity=".18" stroke-width="1"/>
<line x1="0" y1="-30.0" x2="-42.0" y2="-150.0" stroke="#fff" stroke-opacity=".18" stroke-width="1"/>
<path d="M-17.5,-55.0 L-43.4,-110.0 L-35.0,-125.0 Z" fill="#fff" opacity=".55" filter="url(#soft)"/>
<line x1="0" y1="0" x2="0" y2="-250.0" stroke="url(#gold)" stroke-width="1.6"/>
<path d="M0,0 L-70.0,-105.0 L-38.5,-205.0 L0,-250.0 L38.5,-205.0 L70.0,-105.0 Z" fill="none" stroke="url(#gold)" stroke-width="3" stroke-linejoin="miter"/>
</g>
<g transform="translate(400,400) rotate(202.5)">
<path d="M0,0 L-70.0,-105.0 L-38.5,-205.0 L0,-250.0 Z" fill="url(#vLight1)"/>
<path d="M0,0 L70.0,-105.0 L38.5,-205.0 L0,-250.0 Z" fill="url(#vDark1)"/>
<path d="M0,0 L-43.4,-81.9 L-23.9,-159.9 L0,-195.0 L23.9,-159.9 L43.4,-81.9 Z" transform="translate(0,-25.0)" fill="url(#bevel)" stroke="#f3e6ff" stroke-opacity=".35" stroke-width="1"/>
<line x1="0" y1="-30.0" x2="-24.5" y2="-131.2" stroke="#fff" stroke-opacity=".18" stroke-width="1"/>
<line x1="0" y1="-30.0" x2="-42.0" y2="-150.0" stroke="#fff" stroke-opacity=".18" stroke-width="1"/>
<path d="M-17.5,-55.0 L-43.4,-110.0 L-35.0,-125.0 Z" fill="#fff" opacity=".55" filter="url(#soft)"/>
<line x1="0" y1="0" x2="0" y2="-250.0" stroke="url(#gold)" stroke-width="1.6"/>
<path d="M0,0 L-70.0,-105.0 L-38.5,-205.0 L0,-250.0 L38.5,-205.0 L70.0,-105.0 Z" fill="none" stroke="url(#gold)" stroke-width="3" stroke-linejoin="miter"/>
</g>
<g transform="translate(400,400) rotate(247.5)">
<path d="M0,0 L-70.0,-105.0 L-38.5,-205.0 L0,-250.0 Z" fill="url(#vLight1)"/>
<path d="M0,0 L70.0,-105.0 L38.5,-205.0 L0,-250.0 Z" fill="url(#vDark1)"/>
<path d="M0,0 L-43.4,-81.9 L-23.9,-159.9 L0,-195.0 L23.9,-159.9 L43.4,-81.9 Z" transform="translate(0,-25.0)" fill="url(#bevel)" stroke="#f3e6ff" stroke-opacity=".35" stroke-width="1"/>
<line x1="0" y1="-30.0" x2="-24.5" y2="-131.2" stroke="#fff" stroke-opacity=".18" stroke-width="1"/>
<line x1="0" y1="-30.0" x2="-42.0" y2="-150.0" stroke="#fff" stroke-opacity=".18" stroke-width="1"/>
<path d="M-17.5,-55.0 L-43.4,-110.0 L-35.0,-125.0 Z" fill="#fff" opacity=".55" filter="url(#soft)"/>
<line x1="0" y1="0" x2="0" y2="-250.0" stroke="url(#gold)" stroke-width="1.6"/>
<path d="M0,0 L-70.0,-105.0 L-38.5,-205.0 L0,-250.0 L38.5,-205.0 L70.0,-105.0 Z" fill="none" stroke="url(#gold)" stroke-width="3" stroke-linejoin="miter"/>
</g>
<g transform="translate(400,400) rotate(292.5)">
<path d="M0,0 L-70.0,-105.0 L-38.5,-205.0 L0,-250.0 Z" fill="url(#vLight1)"/>
<path d="M0,0 L70.0,-105.0 L38.5,-205.0 L0,-250.0 Z" fill="url(#vDark1)"/>
<path d="M0,0 L-43.4,-81.9 L-23.9,-159.9 L0,-195.0 L23.9,-159.9 L43.4,-81.9 Z" transform="translate(0,-25.0)" fill="url(#bevel)" stroke="#f3e6ff" stroke-opacity=".35" stroke-width="1"/>
<line x1="0" y1="-30.0" x2="-24.5" y2="-131.2" stroke="#fff" stroke-opacity=".18" stroke-width="1"/>
<line x1="0" y1="-30.0" x2="-42.0" y2="-150.0" stroke="#fff" stroke-opacity=".18" stroke-width="1"/>
<path d="M-17.5,-55.0 L-43.4,-110.0 L-35.0,-125.0 Z" fill="#fff" opacity=".55" filter="url(#soft)"/>
<line x1="0" y1="0" x2="0" y2="-250.0" stroke="url(#gold)" stroke-width="1.6"/>
<path d="M0,0 L-70.0,-105.0 L-38.5,-205.0 L0,-250.0 L38.5,-205.0 L70.0,-105.0 Z" fill="none" stroke="url(#gold)" stroke-width="3" stroke-linejoin="miter"/>
</g>
<g transform="translate(400,400) rotate(337.5)">
<path d="M0,0 L-70.0,-105.0 L-38.5,-205.0 L0,-250.0 Z" fill="url(#vLight1)"/>
<path d="M0,0 L70.0,-105.0 L38.5,-205.0 L0,-250.0 Z" fill="url(#vDark1)"/>
<path d="M0,0 L-43.4,-81.9 L-23.9,-159.9 L0,-195.0 L23.9,-159.9 L43.4,-81.9 Z" transform="translate(0,-25.0)" fill="url(#bevel)" stroke="#f3e6ff" stroke-opacity=".35" stroke-width="1"/>
<line x1="0" y1="-30.0" x2="-24.5" y2="-131.2" stroke="#fff" stroke-opacity=".18" stroke-width="1"/>
<line x1="0" y1="-30.0" x2="-42.0" y2="-150.0" stroke="#fff" stroke-opacity=".18" stroke-width="1"/>
<path d="M-17.5,-55.0 L-43.4,-110.0 L-35.0,-125.0 Z" fill="#fff" opacity=".55" filter="url(#soft)"/>
<line x1="0" y1="0" x2="0" y2="-250.0" stroke="url(#gold)" stroke-width="1.6"/>
<path d="M0,0 L-70.0,-105.0 L-38.5,-205.0 L0,-250.0 L38.5,-205.0 L70.0,-105.0 Z" fill="none" stroke="url(#gold)" stroke-width="3" stroke-linejoin="miter"/>
</g>
<g transform="translate(400,400) rotate(0)">
<path d="M0,0 L-62.0,-92.2 L-34.1,-168.1 L0,-205.0 Z" fill="url(#vLight2)"/>
<path d="M0,0 L62.0,-92.2 L34.1,-168.1 L0,-205.0 Z" fill="url(#vDark2)"/>
<path d="M0,0 L-38.4,-72.0 L-21.1,-131.1 L0,-159.9 L21.1,-131.1 L38.4,-72.0 Z" transform="translate(0,-20.5)" fill="url(#bevel)" stroke="#f3e6ff" stroke-opacity=".35" stroke-width="1"/>
<line x1="0" y1="-24.6" x2="-21.7" y2="-107.6" stroke="#fff" stroke-opacity=".18" stroke-width="1"/>
<line x1="0" y1="-24.6" x2="-37.2" y2="-123.0" stroke="#fff" stroke-opacity=".18" stroke-width="1"/>
<path d="M-15.5,-45.1 L-38.4,-90.2 L-31.0,-102.5 Z" fill="#fff" opacity=".55" filter="url(#soft)"/>
<line x1="0" y1="0" x2="0" y2="-205.0" stroke="url(#gold)" stroke-width="1.6"/>
<path d="M0,0 L-62.0,-92.2 L-34.1,-168.1 L0,-205.0 L34.1,-168.1 L62.0,-92.2 Z" fill="none" stroke="url(#gold)" stroke-width="3" stroke-linejoin="miter"/>
</g>
<g transform="translate(400,400) rotate(45)">
<path d="M0,0 L-62.0,-92.2 L-34.1,-168.1 L0,-205.0 Z" fill="url(#vLight2)"/>
<path d="M0,0 L62.0,-92.2 L34.1,-168.1 L0,-205.0 Z" fill="url(#vDark2)"/>
<path d="M0,0 L-38.4,-72.0 L-21.1,-131.1 L0,-159.9 L21.1,-131.1 L38.4,-72.0 Z" transform="translate(0,-20.5)" fill="url(#bevel)" stroke="#f3e6ff" stroke-opacity=".35" stroke-width="1"/>
<line x1="0" y1="-24.6" x2="-21.7" y2="-107.6" stroke="#fff" stroke-opacity=".18" stroke-width="1"/>
<line x1="0" y1="-24.6" x2="-37.2" y2="-123.0" stroke="#fff" stroke-opacity=".18" stroke-width="1"/>
<path d="M-15.5,-45.1 L-38.4,-90.2 L-31.0,-102.5 Z" fill="#fff" opacity=".55" filter="url(#soft)"/>
<line x1="0" y1="0" x2="0" y2="-205.0" stroke="url(#gold)" stroke-width="1.6"/>
<path d="M0,0 L-62.0,-92.2 L-34.1,-168.1 L0,-205.0 L34.1,-168.1 L62.0,-92.2 Z" fill="none" stroke="url(#gold)" stroke-width="3" stroke-linejoin="miter"/>
</g>
<g transform="translate(400,400) rotate(90)">
<path d="M0,0 L-62.0,-92.2 L-34.1,-168.1 L0,-205.0 Z" fill="url(#vLight2)"/>
<path d="M0,0 L62.0,-92.2 L34.1,-168.1 L0,-205.0 Z" fill="url(#vDark2)"/>
<path d="M0,0 L-38.4,-72.0 L-21.1,-131.1 L0,-159.9 L21.1,-131.1 L38.4,-72.0 Z" transform="translate(0,-20.5)" fill="url(#bevel)" stroke="#f3e6ff" stroke-opacity=".35" stroke-width="1"/>
<line x1="0" y1="-24.6" x2="-21.7" y2="-107.6" stroke="#fff" stroke-opacity=".18" stroke-width="1"/>
<line x1="0" y1="-24.6" x2="-37.2" y2="-123.0" stroke="#fff" stroke-opacity=".18" stroke-width="1"/>
<path d="M-15.5,-45.1 L-38.4,-90.2 L-31.0,-102.5 Z" fill="#fff" opacity=".55" filter="url(#soft)"/>
<line x1="0" y1="0" x2="0" y2="-205.0" stroke="url(#gold)" stroke-width="1.6"/>
<path d="M0,0 L-62.0,-92.2 L-34.1,-168.1 L0,-205.0 L34.1,-168.1 L62.0,-92.2 Z" fill="none" stroke="url(#gold)" stroke-width="3" stroke-linejoin="miter"/>
</g>
<g transform="translate(400,400) rotate(135)">
<path d="M0,0 L-62.0,-92.2 L-34.1,-168.1 L0,-205.0 Z" fill="url(#vLight2)"/>
<path d="M0,0 L62.0,-92.2 L34.1,-168.1 L0,-205.0 Z" fill="url(#vDark2)"/>
<path d="M0,0 L-38.4,-72.0 L-21.1,-131.1 L0,-159.9 L21.1,-131.1 L38.4,-72.0 Z" transform="translate(0,-20.5)" fill="url(#bevel)" stroke="#f3e6ff" stroke-opacity=".35" stroke-width="1"/>
<line x1="0" y1="-24.6" x2="-21.7" y2="-107.6" stroke="#fff" stroke-opacity=".18" stroke-width="1"/>
<line x1="0" y1="-24.6" x2="-37.2" y2="-123.0" stroke="#fff" stroke-opacity=".18" stroke-width="1"/>
<path d="M-15.5,-45.1 L-38.4,-90.2 L-31.0,-102.5 Z" fill="#fff" opacity=".55" filter="url(#soft)"/>
<line x1="0" y1="0" x2="0" y2="-205.0" stroke="url(#gold)" stroke-width="1.6"/>
<path d="M0,0 L-62.0,-92.2 L-34.1,-168.1 L0,-205.0 L34.1,-168.1 L62.0,-92.2 Z" fill="none" stroke="url(#gold)" stroke-width="3" stroke-linejoin="miter"/>
</g>
<g transform="translate(400,400) rotate(180)">
<path d="M0,0 L-62.0,-92.2 L-34.1,-168.1 L0,-205.0 Z" fill="url(#vLight2)"/>
<path d="M0,0 L62.0,-92.2 L34.1,-168.1 L0,-205.0 Z" fill="url(#vDark2)"/>
<path d="M0,0 L-38.4,-72.0 L-21.1,-131.1 L0,-159.9 L21.1,-131.1 L38.4,-72.0 Z" transform="translate(0,-20.5)" fill="url(#bevel)" stroke="#f3e6ff" stroke-opacity=".35" stroke-width="1"/>
<line x1="0" y1="-24.6" x2="-21.7" y2="-107.6" stroke="#fff" stroke-opacity=".18" stroke-width="1"/>
<line x1="0" y1="-24.6" x2="-37.2" y2="-123.0" stroke="#fff" stroke-opacity=".18" stroke-width="1"/>
<path d="M-15.5,-45.1 L-38.4,-90.2 L-31.0,-102.5 Z" fill="#fff" opacity=".55" filter="url(#soft)"/>
<line x1="0" y1="0" x2="0" y2="-205.0" stroke="url(#gold)" stroke-width="1.6"/>
<path d="M0,0 L-62.0,-92.2 L-34.1,-168.1 L0,-205.0 L34.1,-168.1 L62.0,-92.2 Z" fill="none" stroke="url(#gold)" stroke-width="3" stroke-linejoin="miter"/>
</g>
<g transform="translate(400,400) rotate(225)">
<path d="M0,0 L-62.0,-92.2 L-34.1,-168.1 L0,-205.0 Z" fill="url(#vLight2)"/>
<path d="M0,0 L62.0,-92.2 L34.1,-168.1 L0,-205.0 Z" fill="url(#vDark2)"/>
<path d="M0,0 L-38.4,-72.0 L-21.1,-131.1 L0,-159.9 L21.1,-131.1 L38.4,-72.0 Z" transform="translate(0,-20.5)" fill="url(#bevel)" stroke="#f3e6ff" stroke-opacity=".35" stroke-width="1"/>
<line x1="0" y1="-24.6" x2="-21.7" y2="-107.6" stroke="#fff" stroke-opacity=".18" stroke-width="1"/>
<line x1="0" y1="-24.6" x2="-37.2" y2="-123.0" stroke="#fff" stroke-opacity=".18" stroke-width="1"/>
<path d="M-15.5,-45.1 L-38.4,-90.2 L-31.0,-102.5 Z" fill="#fff" opacity=".55" filter="url(#soft)"/>
<line x1="0" y1="0" x2="0" y2="-205.0" stroke="url(#gold)" stroke-width="1.6"/>
<path d="M0,0 L-62.0,-92.2 L-34.1,-168.1 L0,-205.0 L34.1,-168.1 L62.0,-92.2 Z" fill="none" stroke="url(#gold)" stroke-width="3" stroke-linejoin="miter"/>
</g>
<g transform="translate(400,400) rotate(270)">
<path d="M0,0 L-62.0,-92.2 L-34.1,-168.1 L0,-205.0 Z" fill="url(#vLight2)"/>
<path d="M0,0 L62.0,-92.2 L34.1,-168.1 L0,-205.0 Z" fill="url(#vDark2)"/>
<path d="M0,0 L-38.4,-72.0 L-21.1,-131.1 L0,-159.9 L21.1,-131.1 L38.4,-72.0 Z" transform="translate(0,-20.5)" fill="url(#bevel)" stroke="#f3e6ff" stroke-opacity=".35" stroke-width="1"/>
<line x1="0" y1="-24.6" x2="-21.7" y2="-107.6" stroke="#fff" stroke-opacity=".18" stroke-width="1"/>
<line x1="0" y1="-24.6" x2="-37.2" y2="-123.0" stroke="#fff" stroke-opacity=".18" stroke-width="1"/>
<path d="M-15.5,-45.1 L-38.4,-90.2 L-31.0,-102.5 Z" fill="#fff" opacity=".55" filter="url(#soft)"/>
<line x1="0" y1="0" x2="0" y2="-205.0" stroke="url(#gold)" stroke-width="1.6"/>
<path d="M0,0 L-62.0,-92.2 L-34.1,-168.1 L0,-205.0 L34.1,-168.1 L62.0,-92.2 Z" fill="none" stroke="url(#gold)" stroke-width="3" stroke-linejoin="miter"/>
</g>
<g transform="translate(400,400) rotate(315)">
<path d="M0,0 L-62.0,-92.2 L-34.1,-168.1 L0,-205.0 Z" fill="url(#vLight2)"/>
<path d="M0,0 L62.0,-92.2 L34.1,-168.1 L0,-205.0 Z" fill="url(#vDark2)"/>
<path d="M0,0 L-38.4,-72.0 L-21.1,-131.1 L0,-159.9 L21.1,-131.1 L38.4,-72.0 Z" transform="translate(0,-20.5)" fill="url(#bevel)" stroke="#f3e6ff" stroke-opacity=".35" stroke-width="1"/>
<line x1="0" y1="-24.6" x2="-21.7" y2="-107.6" stroke="#fff" stroke-opacity=".18" stroke-width="1"/>
<line x1="0" y1="-24.6" x2="-37.2" y2="-123.0" stroke="#fff" stroke-opacity=".18" stroke-width="1"/>
<path d="M-15.5,-45.1 L-38.4,-90.2 L-31.0,-102.5 Z" fill="#fff" opacity=".55" filter="url(#soft)"/>
<line x1="0" y1="0" x2="0" y2="-205.0" stroke="url(#gold)" stroke-width="1.6"/>
<path d="M0,0 L-62.0,-92.2 L-34.1,-168.1 L0,-205.0 L34.1,-168.1 L62.0,-92.2 Z" fill="none" stroke="url(#gold)" stroke-width="3" stroke-linejoin="miter"/>
</g>
<g transform="translate(400,400) rotate(22.5)">
<path d="M0,0 L-40.0,-60.0 L-22.0,-98.4 L0,-120.0 Z" fill="url(#vLight3)"/>
<path d="M0,0 L40.0,-60.0 L22.0,-98.4 L0,-120.0 Z" fill="url(#vDark3)"/>
<path d="M0,0 L-24.8,-46.8 L-13.6,-76.8 L0,-93.6 L13.6,-76.8 L24.8,-46.8 Z" transform="translate(0,-12.0)" fill="url(#bevel)" stroke="#f3e6ff" stroke-opacity=".35" stroke-width="1"/>
<path d="M-10.0,-26.4 L-24.8,-52.8 L-20.0,-60.0 Z" fill="#fff" opacity=".55" filter="url(#soft)"/>
<line x1="0" y1="0" x2="0" y2="-120.0" stroke="url(#gold)" stroke-width="1.6"/>
<path d="M0,0 L-40.0,-60.0 L-22.0,-98.4 L0,-120.0 L22.0,-98.4 L40.0,-60.0 Z" fill="none" stroke="url(#gold)" stroke-width="3" stroke-linejoin="miter"/>
</g>
<g transform="translate(400,400) rotate(67.5)">
<path d="M0,0 L-40.0,-60.0 L-22.0,-98.4 L0,-120.0 Z" fill="url(#vLight3)"/>
<path d="M0,0 L40.0,-60.0 L22.0,-98.4 L0,-120.0 Z" fill="url(#vDark3)"/>
<path d="M0,0 L-24.8,-46.8 L-13.6,-76.8 L0,-93.6 L13.6,-76.8 L24.8,-46.8 Z" transform="translate(0,-12.0)" fill="url(#bevel)" stroke="#f3e6ff" stroke-opacity=".35" stroke-width="1"/>
<path d="M-10.0,-26.4 L-24.8,-52.8 L-20.0,-60.0 Z" fill="#fff" opacity=".55" filter="url(#soft)"/>
<line x1="0" y1="0" x2="0" y2="-120.0" stroke="url(#gold)" stroke-width="1.6"/>
<path d="M0,0 L-40.0,-60.0 L-22.0,-98.4 L0,-120.0 L22.0,-98.4 L40.0,-60.0 Z" fill="none" stroke="url(#gold)" stroke-width="3" stroke-linejoin="miter"/>
</g>
<g transform="translate(400,400) rotate(112.5)">
<path d="M0,0 L-40.0,-60.0 L-22.0,-98.4 L0,-120.0 Z" fill="url(#vLight3)"/>
<path d="M0,0 L40.0,-60.0 L22.0,-98.4 L0,-120.0 Z" fill="url(#vDark3)"/>
<path d="M0,0 L-24.8,-46.8 L-13.6,-76.8 L0,-93.6 L13.6,-76.8 L24.8,-46.8 Z" transform="translate(0,-12.0)" fill="url(#bevel)" stroke="#f3e6ff" stroke-opacity=".35" stroke-width="1"/>
<path d="M-10.0,-26.4 L-24.8,-52.8 L-20.0,-60.0 Z" fill="#fff" opacity=".55" filter="url(#soft)"/>
<line x1="0" y1="0" x2="0" y2="-120.0" stroke="url(#gold)" stroke-width="1.6"/>
<path d="M0,0 L-40.0,-60.0 L-22.0,-98.4 L0,-120.0 L22.0,-98.4 L40.0,-60.0 Z" fill="none" stroke="url(#gold)" stroke-width="3" stroke-linejoin="miter"/>
</g>
<g transform="translate(400,400) rotate(157.5)">
<path d="M0,0 L-40.0,-60.0 L-22.0,-98.4 L0,-120.0 Z" fill="url(#vLight3)"/>
<path d="M0,0 L40.0,-60.0 L22.0,-98.4 L0,-120.0 Z" fill="url(#vDark3)"/>
<path d="M0,0 L-24.8,-46.8 L-13.6,-76.8 L0,-93.6 L13.6,-76.8 L24.8,-46.8 Z" transform="translate(0,-12.0)" fill="url(#bevel)" stroke="#f3e6ff" stroke-opacity=".35" stroke-width="1"/>
<path d="M-10.0,-26.4 L-24.8,-52.8 L-20.0,-60.0 Z" fill="#fff" opacity=".55" filter="url(#soft)"/>
<line x1="0" y1="0" x2="0" y2="-120.0" stroke="url(#gold)" stroke-width="1.6"/>
<path d="M0,0 L-40.0,-60.0 L-22.0,-98.4 L0,-120.0 L22.0,-98.4 L40.0,-60.0 Z" fill="none" stroke="url(#gold)" stroke-width="3" stroke-linejoin="miter"/>
</g>
<g transform="translate(400,400) rotate(202.5)">
<path d="M0,0 L-40.0,-60.0 L-22.0,-98.4 L0,-120.0 Z" fill="url(#vLight3)"/>
<path d="M0,0 L40.0,-60.0 L22.0,-98.4 L0,-120.0 Z" fill="url(#vDark3)"/>
<path d="M0,0 L-24.8,-46.8 L-13.6,-76.8 L0,-93.6 L13.6,-76.8 L24.8,-46.8 Z" transform="translate(0,-12.0)" fill="url(#bevel)" stroke="#f3e6ff" stroke-opacity=".35" stroke-width="1"/>
<path d="M-10.0,-26.4 L-24.8,-52.8 L-20.0,-60.0 Z" fill="#fff" opacity=".55" filter="url(#soft)"/>
<line x1="0" y1="0" x2="0" y2="-120.0" stroke="url(#gold)" stroke-width="1.6"/>
<path d="M0,0 L-40.0,-60.0 L-22.0,-98.4 L0,-120.0 L22.0,-98.4 L40.0,-60.0 Z" fill="none" stroke="url(#gold)" stroke-width="3" stroke-linejoin="miter"/>
</g>
<g transform="translate(400,400) rotate(247.5)">
<path d="M0,0 L-40.0,-60.0 L-22.0,-98.4 L0,-120.0 Z" fill="url(#vLight3)"/>
<path d="M0,0 L40.0,-60.0 L22.0,-98.4 L0,-120.0 Z" fill="url(#vDark3)"/>
<path d="M0,0 L-24.8,-46.8 L-13.6,-76.8 L0,-93.6 L13.6,-76.8 L24.8,-46.8 Z" transform="translate(0,-12.0)" fill="url(#bevel)" stroke="#f3e6ff" stroke-opacity=".35" stroke-width="1"/>
<path d="M-10.0,-26.4 L-24.8,-52.8 L-20.0,-60.0 Z" fill="#fff" opacity=".55" filter="url(#soft)"/>
<line x1="0" y1="0" x2="0" y2="-120.0" stroke="url(#gold)" stroke-width="1.6"/>
<path d="M0,0 L-40.0,-60.0 L-22.0,-98.4 L0,-120.0 L22.0,-98.4 L40.0,-60.0 Z" fill="none" stroke="url(#gold)" stroke-width="3" stroke-linejoin="miter"/>
</g>
<g transform="translate(400,400) rotate(292.5)">
<path d="M0,0 L-40.0,-60.0 L-22.0,-98.4 L0,-120.0 Z" fill="url(#vLight3)"/>
<path d="M0,0 L40.0,-60.0 L22.0,-98.4 L0,-120.0 Z" fill="url(#vDark3)"/>
<path d="M0,0 L-24.8,-46.8 L-13.6,-76.8 L0,-93.6 L13.6,-76.8 L24.8,-46.8 Z" transform="translate(0,-12.0)" fill="url(#bevel)" stroke="#f3e6ff" stroke-opacity=".35" stroke-width="1"/>
<path d="M-10.0,-26.4 L-24.8,-52.8 L-20.0,-60.0 Z" fill="#fff" opacity=".55" filter="url(#soft)"/>
<line x1="0" y1="0" x2="0" y2="-120.0" stroke="url(#gold)" stroke-width="1.6"/>
<path d="M0,0 L-40.0,-60.0 L-22.0,-98.4 L0,-120.0 L22.0,-98.4 L40.0,-60.0 Z" fill="none" stroke="url(#gold)" stroke-width="3" stroke-linejoin="miter"/>
</g>
<g transform="translate(400,400) rotate(337.5)">
<path d="M0,0 L-40.0,-60.0 L-22.0,-98.4 L0,-120.0 Z" fill="url(#vLight3)"/>
<path d="M0,0 L40.0,-60.0 L22.0,-98.4 L0,-120.0 Z" fill="url(#vDark3)"/>
<path d="M0,0 L-24.8,-46.8 L-13.6,-76.8 L0,-93.6 L13.6,-76.8 L24.8,-46.8 Z" transform="translate(0,-12.0)" fill="url(#bevel)" stroke="#f3e6ff" stroke-opacity=".35" stroke-width="1"/>
<path d="M-10.0,-26.4 L-24.8,-52.8 L-20.0,-60.0 Z" fill="#fff" opacity=".55" filter="url(#soft)"/>
<line x1="0" y1="0" x2="0" y2="-120.0" stroke="url(#gold)" stroke-width="1.6"/>
<path d="M0,0 L-40.0,-60.0 L-22.0,-98.4 L0,-120.0 L22.0,-98.4 L40.0,-60.0 Z" fill="none" stroke="url(#gold)" stroke-width="3" stroke-linejoin="miter"/>
</g>
</g>
<circle cx="400" cy="400" r="54" fill="#1a0b2b" stroke="url(#gold)" stroke-width="4"/>
<circle cx="400" cy="400" r="45" fill="none" stroke="url(#gold)" stroke-width="1.5"/>
<circle cx="449.5" cy="400.0" r="2.3" fill="#f6d77a"/>
<circle cx="445.7" cy="418.9" r="2.3" fill="#f6d77a"/>
<circle cx="435.0" cy="435.0" r="2.3" fill="#f6d77a"/>
<circle cx="418.9" cy="445.7" r="2.3" fill="#f6d77a"/>
<circle cx="400.0" cy="449.5" r="2.3" fill="#f6d77a"/>
<circle cx="381.1" cy="445.7" r="2.3" fill="#f6d77a"/>
<circle cx="365.0" cy="435.0" r="2.3" fill="#f6d77a"/>
<circle cx="354.3" cy="418.9" r="2.3" fill="#f6d77a"/>
<circle cx="350.5" cy="400.0" r="2.3" fill="#f6d77a"/>
<circle cx="354.3" cy="381.1" r="2.3" fill="#f6d77a"/>
<circle cx="365.0" cy="365.0" r="2.3" fill="#f6d77a"/>
<circle cx="381.1" cy="354.3" r="2.3" fill="#f6d77a"/>
<circle cx="400.0" cy="350.5" r="2.3" fill="#f6d77a"/>
<circle cx="418.9" cy="354.3" r="2.3" fill="#f6d77a"/>
<circle cx="435.0" cy="365.0" r="2.3" fill="#f6d77a"/>
<circle cx="445.7" cy="381.1" r="2.3" fill="#f6d77a"/>
<polygon points="435.1,414.5 414.5,435.1 385.5,435.1 364.9,414.5 364.9,385.5 385.5,364.9 414.5,364.9 435.1,385.5" fill="url(#gem)" stroke="url(#gold)" stroke-width="2.5"/>
<polygon points="417.6,407.3 407.3,417.6 392.7,417.6 382.4,407.3 382.4,392.7 392.7,382.4 407.3,382.4 417.6,392.7" fill="#fff" fill-opacity=".14" stroke="#fff" stroke-opacity=".6" stroke-width="1"/>
<line x1="435.1" y1="414.5" x2="417.6" y2="407.3" stroke="#fff" stroke-opacity=".45" stroke-width="1"/>
<line x1="414.5" y1="435.1" x2="407.3" y2="417.6" stroke="#fff" stroke-opacity=".45" stroke-width="1"/>
<line x1="385.5" y1="435.1" x2="392.7" y2="417.6" stroke="#fff" stroke-opacity=".45" stroke-width="1"/>
<line x1="364.9" y1="414.5" x2="382.4" y2="407.3" stroke="#fff" stroke-opacity=".45" stroke-width="1"/>
<line x1="364.9" y1="385.5" x2="382.4" y2="392.7" stroke="#fff" stroke-opacity=".45" stroke-width="1"/>
<line x1="385.5" y1="364.9" x2="392.7" y2="382.4" stroke="#fff" stroke-opacity=".45" stroke-width="1"/>
<line x1="414.5" y1="364.9" x2="407.3" y2="382.4" stroke="#fff" stroke-opacity=".45" stroke-width="1"/>
<line x1="435.1" y1="385.5" x2="417.6" y2="392.7" stroke="#fff" stroke-opacity=".45" stroke-width="1"/>
<ellipse cx="389" cy="387" rx="9" ry="5" transform="rotate(-35 389 387)" fill="#fff" opacity=".9" filter="url(#soft)"/>
<path d="M282,196 L283.62,203.38 L291,205 L283.62,206.62 L282,214 L280.38,206.62 L273,205 L280.38,203.38 Z" fill="#fff" opacity=".9"/>
<path d="M560,293 L561.26,298.74 L567,300 L561.26,301.26 L560,307 L558.74,301.26 L553,300 L558.74,298.74 Z" fill="#fff" opacity=".9"/>
<path d="M330,554 L331.08,558.92 L336,560 L331.08,561.08 L330,566 L328.92,561.08 L324,560 L328.92,558.92 Z" fill="#fff" opacity=".9"/>
<path d="M505,177 L505.9,181.1 L510,182 L505.9,182.9 L505,187 L504.1,182.9 L500,182 L504.1,181.1 Z" fill="#fff" opacity=".9"/>
<path d="M50,24 H750 V37.0 H763.0 V50 H776 V950 H763.0 V963.0 H750 V976 H50 V963.0 H37.0 V950 H24 V50 H37.0 V37.0 H50 Z" fill="none" stroke="url(#gold)" stroke-width="3" opacity="1"/>
<path d="M62,36 H738 V49.0 H751.0 V62 H764 V938 H751.0 V951.0 H738 V964 H62 V951.0 H49.0 V938 H36 V62 H49.0 V49.0 H62 Z" fill="none" stroke="url(#gold)" stroke-width="1.2" opacity="0.7"/>
</svg>
